<svg xmlns="http://www.w3.org/2000/svg" viewBox="0 0 604.09 524.2">
  <defs>
    <style>
      .a {
        fill: #8c6239;
      }

      .b {
        fill: none;
        stroke: #000;
        stroke-miterlimit: 10;
      }
    </style>
  </defs>
  <title>land</title>
  <g>
    <path class="a" d="M547,504c-12.26,2.63-15.95-14.59-28.2-12s-8.8,18.75-21.06,21.38-15-10.39-27.31-7.76c-7.24,1.55-14.92,19.25-22.21,18-11.77-2-8.06-24.05-19.83-26s-13.59,8.92-25.36,6.94-14.6,14.94-26.36,13-7-30.38-18.77-32.35-16.49,26.21-28.26,24.23-7.43-27.87-19.19-29.84-12.34,1.46-24.11-.51S273.23,485,261.46,483s-11.73-2.2-23.5-4.17-8.87-19.26-20.64-21.23-14.75,15.82-26.52,13.84c-5.21-.87-11.85-18-17.11-17.48-12.17,1.27-9.43,27.62-21.6,28.89s-11.72,5.64-23.89,6.91-13.24-9-25.42-7.69-12.78-4.53-25-3.26c-7.53.78-11.17-12.33-18.08-14.25-7.14-2-22.78,14.9-28.6,10.5a77.87,77.87,0,0,1-17.09-18.54c-3.75-6.11,10.55-19.37,9.24-26.83-2-11.08,1.15-11.63-.81-22.72-1-5.86-22.73-10.85-22-16.74C2,378.8,11.16,380,12.64,368.56s6.45-10.78,7.93-22.21S8.93,333.22,10.41,321.79s-4.74-12.23-3.26-23.66,24.06-8.5,25.54-19.93-9-12.79-7.56-24.22,2.43-11.31,3.91-22.73S24.5,219,26,207.62s20-9,21.51-20.46-22.31-14.51-20.83-25.94,8.82-10.48,10.3-21.91c.81-6.23-1.47-10.43-2.67-16.6-2.68-13.78-9.15-12.52-11.82-26.3-1.66-8.54,1.92-22.18,3.81-30.05,2-8.21,13.25-15.63,18.34-22.18s9.23-19.81,16.7-23.74c7.16-3.77,19.78-9.82,28.46-10.32,11.67-.67,11.57-2.35,23.24-3s12.37,11.52,24,10.85,12.41,12.32,24.08,11.65,11.49-3.76,23.16-4.43,11.51-3.45,23.18-4.12,11.79,1.46,23.46.79,12,5.37,23.69,4.7,11.58-2.24,23.25-2.91,11.68-.45,23.35-1.12S312.32,11.59,324,10.92s11.76.9,23.44.23c2.59-.15,4.17,10,6.76,10.2,11.42.86,12.07-7.76,23.49-6.9s10.62,11.45,22,12.31S413.26-.34,424.68.52s9.14,31.08,20.57,31.94S457.67,20,469.1,20.88s12.41-12.26,23.84-11.4S503.63,20,515.05,20.89s12.68-15.81,24.11-15c8.32.63,17.88,14.25,24.79,17.9,7.18,3.8,6.36,18.05,11.34,24.29S592.84,57.11,595,65c2,7.54-6.23,16.35-7.45,24.61-1.86,12.57-6.63,11.87-8.48,24.44s4.74,13.55,2.88,26.12-16.73,10.38-18.58,23,24.47,16.46,22.61,29-25.53,9.08-27.38,21.66,25.18,16.57,23.32,29.15-5.72,12-7.58,24.58c-.92,6.2-5.61,10.49-4.54,16.66,2.1,12.05,14.64,9.86,16.75,21.91s-16.67,15.33-14.57,27.38.65,12.3,2.76,24.36,20.52,8.84,22.62,20.89-4.13,13.14-2,25.2-2.38,12.84-.28,24.89c1.33,7.63,9.93,18.63,8.4,25.79-1.58,7.4-21,9.18-25.22,15.36s-6.84,12.59-13.12,16.83C559,490.88,554.56,502.33,547,504Z"/>
    <path class="b" d="M547,504c-12.26,2.63-15.95-14.59-28.2-12s-8.8,18.75-21.06,21.38-15-10.39-27.31-7.76c-7.24,1.55-14.92,19.25-22.21,18-11.77-2-8.06-24.05-19.83-26s-13.59,8.92-25.36,6.94-14.6,14.94-26.36,13-7-30.38-18.77-32.35-16.49,26.21-28.26,24.23-7.43-27.87-19.19-29.84-12.34,1.46-24.11-.51S273.23,485,261.46,483s-11.73-2.2-23.5-4.17-8.87-19.26-20.64-21.23-14.75,15.82-26.52,13.84c-5.21-.87-11.85-18-17.11-17.48-12.17,1.27-9.43,27.62-21.6,28.89s-11.72,5.64-23.89,6.91-13.24-9-25.42-7.69-12.78-4.53-25-3.26c-7.53.78-11.17-12.33-18.08-14.25-7.14-2-22.78,14.9-28.6,10.5a77.87,77.87,0,0,1-17.09-18.54c-3.75-6.11,10.55-19.37,9.24-26.83-2-11.08,1.15-11.63-.81-22.72-1-5.86-22.73-10.85-22-16.74C2,378.8,11.16,380,12.64,368.56s6.45-10.78,7.93-22.21S8.93,333.22,10.41,321.79s-4.74-12.23-3.26-23.66,24.06-8.5,25.54-19.93-9-12.79-7.56-24.22,2.43-11.31,3.91-22.73S24.5,219,26,207.62s20-9,21.51-20.46-22.31-14.51-20.83-25.94,8.82-10.48,10.3-21.91c.81-6.23-1.47-10.43-2.67-16.6-2.68-13.78-9.15-12.52-11.82-26.3-1.66-8.54,1.92-22.18,3.81-30.05,2-8.21,13.25-15.63,18.34-22.18s9.23-19.81,16.7-23.74c7.16-3.77,19.78-9.82,28.46-10.32,11.67-.67,11.57-2.35,23.24-3s12.37,11.52,24,10.85,12.41,12.32,24.08,11.65,11.49-3.76,23.16-4.43,11.51-3.45,23.18-4.12,11.79,1.46,23.46.79,12,5.37,23.69,4.7,11.58-2.24,23.25-2.91,11.68-.45,23.35-1.12S312.32,11.59,324,10.92s11.76.9,23.44.23c2.59-.15,4.17,10,6.76,10.2,11.42.86,12.07-7.76,23.49-6.9s10.62,11.45,22,12.31S413.26-.34,424.68.52s9.14,31.08,20.57,31.94S457.67,20,469.1,20.88s12.41-12.26,23.84-11.4S503.63,20,515.05,20.89s12.68-15.81,24.11-15c8.32.63,17.88,14.25,24.79,17.9,7.18,3.8,6.36,18.05,11.34,24.29S592.84,57.11,595,65c2,7.54-6.23,16.35-7.45,24.61-1.86,12.57-6.63,11.87-8.48,24.44s4.74,13.55,2.88,26.12-16.73,10.38-18.58,23,24.47,16.46,22.61,29-25.53,9.08-27.38,21.66,25.18,16.57,23.32,29.15-5.72,12-7.58,24.58c-.92,6.2-5.61,10.49-4.54,16.66,2.1,12.05,14.64,9.86,16.75,21.91s-16.67,15.33-14.57,27.38.65,12.3,2.76,24.36,20.52,8.84,22.62,20.89-4.13,13.14-2,25.2-2.38,12.84-.28,24.89c1.33,7.63,9.93,18.63,8.4,25.79-1.58,7.4-21,9.18-25.22,15.36s-6.84,12.59-13.12,16.83C559,490.88,554.56,502.33,547,504Z"/>
  </g>
</svg>
