<svg xmlns="http://www.w3.org/2000/svg" viewBox="0 0 657.01 518.95">
  <defs>
    <style>
      .a {
        fill: none;
      }

      .b {
        fill: #29abe2;
      }

      .c {
        fill: #145375;
      }

      .d {
        fill: #00a99d;
      }

      .e {
        fill: #52c1e8;
      }
    </style>
  </defs>
  <title>water</title>
  <g>
    <path class="a" d="M362.41,166.64c7.45,4.54,15.22,9.05,23.25,13.41A194.65,194.65,0,0,0,417,166.64Z"/>
    <path class="a" d="M210.39,249.47c11.47,6.47,23.52,12.69,35.89,18.28A215.18,215.18,0,0,0,280,249.47Z"/>
    <path class="a" d="M17.37,219.62c9.94,6.52,20.7,13.19,32,19.62,9.18-6.74,17.53-13.38,24.95-19.62Z"/>
    <path class="a" d="M633.48,166.64H586.8a92.58,92.58,0,0,0,31.78,11.81C623.82,174.59,628.79,170.63,633.48,166.64Z"/>
    <path class="a" d="M435.41,262.23c6.48-4.06,12.64-8.35,18.44-12.76H416.34A123.4,123.4,0,0,0,435.41,262.23Z"/>
    <path class="a" d="M509.22,334.73c5.24-3.86,10.21-7.82,14.9-11.81H477.44A92.58,92.58,0,0,0,509.22,334.73Z"/>
    <rect class="a" y="405.76" width="657.01" height="113.2"/>
    <path class="a" d="M0,156.9v7.7q6.72-3.78,13.11-7.7Z"/>
    <path class="a" d="M253,322.92c7.45,4.54,15.22,9.05,23.25,13.41a194.64,194.64,0,0,0,31.32-13.41Z"/>
    <path class="a" d="M0,375.91v3.16q4.64-1.52,9.19-3.16Z"/>
    <path class="a" d="M636.62,282.81c35,0,14.32,1.08,14.32,1.08v39H615.12c11.64,13,25.71,25.32,41.89,33.35V249.47H565.48C584.4,267.86,608.44,282.81,636.62,282.81Z"/>
    <path class="a" d="M63.24,15.85A634.72,634.72,0,0,0,158.77,83c40.41-29.66,64.57-57.36,64.57-57.36s60.81,53.59,132.3,85.87C425,81.79,467.33,15.85,467.33,15.85s16,35.65,44.38,64.58c.82-1.21,1.25-1.86,1.25-1.86s1,2.22,2.92,6a134,134,0,0,0,28.9,21.4c52-32.52,82.67-80.35,82.67-80.35A257,257,0,0,0,657,73.24V0H0V72.24C39.61,42.95,63.24,15.85,63.24,15.85Z"/>
    <path class="b" d="M108.86,78.57s9.71,8.55,25.9,20.87c8.53-5.45,16.55-11,24-16.49a634.72,634.72,0,0,1-95.54-67.1S39.61,42.95,0,72.24V156.9H13.11C72,120.87,108.86,78.57,108.86,78.57Z"/>
    <path class="b" d="M544.77,105.94a134,134,0,0,1-28.9-21.4,267.78,267.78,0,0,0,16.92,28.39Q539,109.59,544.77,105.94Z"/>
    <path class="b" d="M457.18,135.15c1.86-.1,3.71-.24,5.55-.4a301.86,301.86,0,0,0,49-54.32c-28.36-28.93-44.38-64.58-44.38-64.58S425,81.79,355.65,111.46C388.86,126.46,424.38,136.86,457.18,135.15Z"/>
    <path class="c" d="M544.77,105.94q-5.81,3.64-12,7c12.64,18.51,31,40.23,54,53.71h46.68A301.28,301.28,0,0,0,657,144.28v-71a257,257,0,0,1-29.57-47.65S596.74,73.42,544.77,105.94Z"/>
    <path class="c" d="M282,108.42a635.15,635.15,0,0,0,80.45,58.22H417a248.5,248.5,0,0,0,45.75-31.88c-1.84.16-3.69.3-5.55.4-32.81,1.71-68.32-8.69-101.54-23.69-71.5-32.28-132.3-85.87-132.3-85.87S199.18,53.29,158.77,83c-7.47,5.48-15.49,11-24,16.49,21.79,16.57,55.33,40,92.89,58.6C261.85,131.48,282,108.42,282,108.42Z"/>
    <path class="d" d="M74.36,219.62c25.2-21.2,39.62-37.74,39.62-37.74s12.51,11,32.84,26.08c31.62-14.71,59.08-33,80.83-49.91-37.56-18.63-71.11-42-92.89-58.6-16.19-12.32-25.9-20.87-25.9-20.87S72,120.87,13.11,156.9Q6.73,160.81,0,164.6v43.21c5.44,3.82,11.25,7.79,17.37,11.81Z"/>
    <path class="d" d="M462.73,134.76A248.5,248.5,0,0,1,417,166.64,194.65,194.65,0,0,1,385.66,180c32.5,17.64,69,32.71,104.08,36.93,18.3-19.47,28.34-35.1,28.34-35.1a248.06,248.06,0,0,0,19.26,33.51c31.38-5.9,58.79-20.42,81.24-36.94a92.58,92.58,0,0,1-31.78-11.81c-23-13.47-41.37-35.2-54-53.71a267.78,267.78,0,0,1-16.92-28.39c-1.92-3.75-2.92-6-2.92-6s-.42.66-1.25,1.86A301.86,301.86,0,0,1,462.73,134.76Z"/>
    <path class="b" d="M210.39,249.47H280c49.11-32.37,78-77.33,78-77.33s16,35.65,44.38,64.58c.82-1.21,1.25-1.86,1.25-1.86s1,2.22,2.92,6c3.14,3,6.42,5.89,9.83,8.64h37.51A293.12,293.12,0,0,0,489.74,217c-35-4.22-71.59-19.29-104.08-36.93-8-4.36-15.8-8.86-23.25-13.41A635.15,635.15,0,0,1,282,108.42S261.85,131.48,227.65,158c-21.75,16.89-49.21,35.2-80.83,49.91A624,624,0,0,0,210.39,249.47Z"/>
    <path class="b" d="M633.48,166.64c-4.69,4-9.66,8-14.9,11.81-22.45,16.52-49.87,31-81.24,36.94a219.31,219.31,0,0,0,28.14,34.08H657V144.28A301.28,301.28,0,0,1,633.48,166.64Z"/>
    <path class="e" d="M49.41,239.24c-11.34-6.43-22.1-13.1-32-19.62-6.12-4-11.94-8-17.37-11.81V235.3c2.15,1.86,11.31,9.71,25.39,20.43C33.92,250.27,41.94,244.72,49.41,239.24Z"/>
    <path class="e" d="M406.51,240.83a267.78,267.78,0,0,0,16.92,28.39q6.16-3.34,12-7a123.4,123.4,0,0,1-19.07-12.76C412.93,246.72,409.65,243.82,406.51,240.83Z"/>
    <path class="e" d="M358,172.14s-28.84,45-78,77.33a215.18,215.18,0,0,1-33.74,18.28c33.21,15,68.73,25.4,101.54,23.69,1.86-.1,3.71-.24,5.55-.4a301.86,301.86,0,0,0,49-54.32C374,207.79,358,172.14,358,172.14Z"/>
    <path class="c" d="M353.37,291c-1.84.16-3.69.3-5.55.4-32.81,1.71-68.32-8.69-101.54-23.69-12.37-5.59-24.42-11.8-35.89-18.28A624,624,0,0,1,146.82,208C126.49,192.9,114,181.88,114,181.88s-14.42,16.54-39.62,37.74c-7.41,6.24-15.76,12.88-24.95,19.62-7.47,5.48-15.49,11-24,16.49,21.79,16.57,55.33,40,92.89,58.6,34.21-26.57,54.31-49.62,54.31-49.62A635.15,635.15,0,0,0,253,322.92h54.57A248.5,248.5,0,0,0,353.37,291Z"/>
    <path class="c" d="M650.94,283.89s20.69-1.08-14.32-1.08c-28.17,0-52.21-15-71.14-33.35a219.31,219.31,0,0,1-28.14-34.08,248.06,248.06,0,0,1-19.26-33.51s-10,15.64-28.34,35.1a293.12,293.12,0,0,1-35.89,32.49c-5.8,4.41-12,8.7-18.44,12.76q-5.81,3.64-12,7c12.64,18.51,31,40.23,54,53.71h46.68c33.51-28.51,52.58-58.22,52.58-58.22s13.79,30.68,38.42,58.22h35.82Z"/>
    <path class="d" d="M118.29,314.33c-37.56-18.64-71.11-42-92.89-58.6C11.31,245,2.15,237.16,0,235.3V375.91H9.19C52.82,360.17,90.28,336.08,118.29,314.33Z"/>
    <path class="d" d="M423.43,269.22a267.78,267.78,0,0,1-16.92-28.39c-1.92-3.75-2.92-6-2.92-6s-.42.66-1.25,1.86a301.86,301.86,0,0,1-49,54.32,248.5,248.5,0,0,1-45.75,31.88,194.64,194.64,0,0,1-31.32,13.41C317,358.41,364,376.48,406.44,374.27c40.47-2.11,75.33-19.34,102.78-39.54a92.58,92.58,0,0,1-31.78-11.81C454.4,309.45,436.07,287.72,423.43,269.22Z"/>
    <path class="b" d="M657,356.28c-16.18-8-30.25-20.34-41.89-33.35-24.64-27.53-38.42-58.22-38.42-58.22s-19.06,29.71-52.58,58.22c-4.69,4-9.66,8-14.9,11.81-27.45,20.2-62.31,37.43-102.78,39.54C364,376.48,317,358.41,276.29,336.33c-8-4.36-15.8-8.86-23.25-13.41a635.15,635.15,0,0,1-80.45-58.22s-20.11,23.06-54.31,49.62c-28,21.75-65.47,45.85-109.09,61.58Q4.64,377.55,0,379.07v26.69H657Z"/>
  </g>
</svg>
